<svg xmlns="http://www.w3.org/2000/svg" width="14" height="15.439" viewBox="0 0 14 15.439">
  <path id="Icon_simple-email" data-name="Icon simple-email" d="M15.66,7.126A7.962,7.962,0,0,1,15.4,8.852a5,5,0,0,1-.671,1.517,3.543,3.543,0,0,1-1.138,1.078,3.213,3.213,0,0,1-1.662.41,2.41,2.41,0,0,1-1.2-.294,2.059,2.059,0,0,1-.812-.833,2.575,2.575,0,0,1-2.178,1.094,2.215,2.215,0,0,1-1.9-1.023,3.348,3.348,0,0,1-.473-1.185A5.109,5.109,0,0,1,5.3,8.071a7.179,7.179,0,0,1,.471-1.893,5.145,5.145,0,0,1,.87-1.45A3.681,3.681,0,0,1,7.84,3.8a3.338,3.338,0,0,1,1.455-.323,4.524,4.524,0,0,1,.87.074,3.562,3.562,0,0,1,.675.2,3.652,3.652,0,0,1,.56.3c.171.11.342.224.513.34l-.423,4.862a1.616,1.616,0,0,0,.013.569.8.8,0,0,0,.174.351.625.625,0,0,0,.282.183,1.046,1.046,0,0,0,.99-.195,2.11,2.11,0,0,0,.531-.675,4.349,4.349,0,0,0,.357-1.015,6.964,6.964,0,0,0,.156-1.264,8.077,8.077,0,0,0-.2-2.362,4.694,4.694,0,0,0-.874-1.827,4.059,4.059,0,0,0-1.567-1.177A5.687,5.687,0,0,0,9.07,1.426a5.04,5.04,0,0,0-2.257.492A5.18,5.18,0,0,0,5.1,3.282,6.547,6.547,0,0,0,3.974,5.334,9.247,9.247,0,0,0,3.5,7.891,8.5,8.5,0,0,0,3.743,10.5a4.711,4.711,0,0,0,.953,1.87,3.978,3.978,0,0,0,1.615,1.123,6.2,6.2,0,0,0,2.229.372A7.633,7.633,0,0,0,10,13.707c.241-.048.47-.106.688-.17a5.177,5.177,0,0,0,.592-.212l.306,1.376a3.4,3.4,0,0,1-.663.328,6.38,6.38,0,0,1-.783.227,7.644,7.644,0,0,1-1.636.183,8.58,8.58,0,0,1-2.983-.48,5.49,5.49,0,0,1-2.175-1.43,6,6,0,0,1-1.305-2.361,10.07,10.07,0,0,1-.365-3.277,9.995,9.995,0,0,1,.627-3.145,7.784,7.784,0,0,1,1.511-2.5A6.884,6.884,0,0,1,6.121.6,7.216,7.216,0,0,1,9.106,0,7.534,7.534,0,0,1,12,.518a5.625,5.625,0,0,1,2.088,1.457,5.978,5.978,0,0,1,1.239,2.251A8.606,8.606,0,0,1,15.66,7.126Zm-8.285.945A3.282,3.282,0,0,0,7.545,9.7a.873.873,0,0,0,.839.55.927.927,0,0,0,.287-.053A1.025,1.025,0,0,0,9,10a1.766,1.766,0,0,0,.336-.405,3.11,3.11,0,0,0,.309-.685l.33-3.778a1.971,1.971,0,0,0-.513-.068,1.775,1.775,0,0,0-.854.2,1.69,1.69,0,0,0-.6.575,3.377,3.377,0,0,0-.4.945A8.02,8.02,0,0,0,7.376,8.07Z" transform="translate(-1.67)" fill="#d9e713"/>
</svg>
