<svg xmlns="http://www.w3.org/2000/svg" width="18" height="18" viewBox="0 0 18 18">
  <path id="Icon_awesome-pinterest-square" data-name="Icon awesome-pinterest-square" d="M18,4.179V18.321a1.929,1.929,0,0,1-1.929,1.929H6.2a10.3,10.3,0,0,0,1.1-2.383c.121-.462.615-2.346.615-2.346a2.638,2.638,0,0,0,2.262,1.133c2.977,0,5.119-2.736,5.119-6.135a5.79,5.79,0,0,0-6.083-5.7C4.958,4.821,2.7,7.678,2.7,10.792a4.427,4.427,0,0,0,2,3.821c.189.088.285.048.329-.133.032-.137.2-.808.273-1.117a.291.291,0,0,0-.068-.281,3.846,3.846,0,0,1-.735-2.25A4.271,4.271,0,0,1,8.956,6.549a3.9,3.9,0,0,1,4.122,4.014c0,2.668-1.346,4.516-3.1,4.516A1.435,1.435,0,0,1,8.514,13.3a19.938,19.938,0,0,0,.816-3.287c0-2.129-3.033-1.836-3.033,1a3.605,3.605,0,0,0,.293,1.467c-1.262,5.336-1.45,5.4-1.189,7.738l.088.032H1.929A1.929,1.929,0,0,1,0,18.321V4.179A1.929,1.929,0,0,1,1.929,2.25H16.071A1.929,1.929,0,0,1,18,4.179Z" transform="translate(0 -2.25)" fill="#d9e713"/>
</svg>
